<?xml version="1.0" standalone="no"?>
<!DOCTYPE svg PUBLIC "-//W3C//DTD SVG 20010904//EN"
 "http://www.w3.org/TR/2001/REC-SVG-20010904/DTD/svg10.dtd">
<svg version="1.0" xmlns="http://www.w3.org/2000/svg"
 width="256.000000pt" height="256.000000pt" viewBox="0 0 256.000000 256.000000"
 preserveAspectRatio="xMidYMid meet">
<metadata>
Created by potrace 1.14, written by Peter Selinger 2001-2017
</metadata>
<g transform="translate(0.000000,256.000000) scale(0.100000,-0.100000)"
fill="#000000" stroke="none">
<path d="M1110 2340 c0 -5 -17 -10 -39 -10 -21 0 -51 -7 -67 -14 -15 -8 -31
-13 -35 -11 -4 3 -12 -2 -19 -10 -7 -8 -23 -15 -36 -15 -13 0 -24 -4 -24 -10
0 -5 -5 -10 -10 -10 -6 0 -27 -11 -48 -23 -20 -13 -54 -30 -74 -37 -20 -8 -35
-17 -32 -22 3 -4 -4 -8 -15 -8 -12 0 -26 -9 -33 -20 -7 -11 -19 -20 -26 -20
-16 0 -222 -206 -222 -223 0 -7 -9 -19 -20 -27 -11 -8 -20 -22 -20 -32 0 -10
-4 -18 -10 -18 -5 0 -10 -9 -10 -20 0 -11 -4 -20 -10 -20 -5 0 -10 -9 -10 -20
0 -11 -4 -20 -10 -20 -5 0 -10 -9 -10 -20 0 -11 -9 -35 -20 -55 -11 -20 -20
-44 -20 -55 0 -10 -5 -22 -10 -25 -6 -3 -10 -17 -10 -30 0 -13 -4 -27 -10 -30
-5 -3 -10 -24 -10 -45 0 -21 -4 -41 -10 -45 -12 -7 -7 -304 7 -365 26 -120
103 -300 175 -406 30 -45 219 -244 232 -244 6 0 19 -9 51 -37 7 -7 24 -18 37
-23 31 -14 63 -33 80 -48 8 -6 23 -13 34 -15 10 -2 33 -11 50 -20 18 -9 45
-19 62 -22 17 -3 42 -9 56 -15 15 -5 26 -7 26 -4 0 2 15 -3 33 -13 42 -22 323
-28 375 -7 17 7 32 10 32 6 0 -3 5 -1 12 6 7 7 22 12 34 12 13 0 25 4 28 9 3
5 15 7 26 4 12 -3 28 1 38 9 9 7 31 20 47 27 17 7 38 17 47 22 10 5 25 9 33 9
8 0 15 5 15 10 0 6 5 10 11 10 6 0 31 14 56 30 24 17 48 30 52 30 4 0 24 17
44 38 20 20 56 56 79 79 64 63 98 102 98 113 0 6 3 10 8 10 4 0 18 18 32 40
13 22 28 40 32 40 4 0 8 7 8 15 0 9 18 53 40 100 22 47 40 94 40 105 0 11 4
20 9 20 5 0 11 17 14 38 2 20 10 65 16 99 10 56 17 149 11 163 -1 3 -4 52 -7
110 -3 58 -9 107 -13 110 -4 3 -10 25 -13 50 -7 69 -21 112 -61 192 -20 40
-36 79 -36 86 0 6 -4 12 -8 12 -5 0 -15 12 -23 28 -8 15 -22 34 -31 43 -10 9
-18 21 -18 27 0 6 -9 16 -20 22 -11 6 -20 15 -20 21 0 14 -107 119 -121 119
-7 0 -10 3 -6 6 7 7 -17 34 -31 34 -4 0 -19 11 -32 25 -13 14 -26 23 -28 20
-3 -3 -14 2 -24 12 -20 18 -31 25 -109 67 -30 17 -63 31 -74 33 -11 2 -24 8
-29 13 -6 6 -23 10 -38 10 -15 0 -28 5 -28 10 0 6 -22 10 -49 10 -28 0 -53 5
-56 10 -4 6 -72 10 -171 10 -103 0 -164 -4 -164 -10z"/>
</g>
</svg>
